<svg width="1024" height="273" viewBox="0 0 1024 273" fill="none" xmlns="http://www.w3.org/2000/svg">
<rect width="1024" height="272.141" fill="white"/>
<mask id="mask0" mask-type="alpha" maskUnits="userSpaceOnUse" x="0" y="0" width="1024" height="273">
<rect width="1024" height="272.141" fill="white"/>
</mask>
<g mask="url(#mask0)">
<path fill-rule="evenodd" clip-rule="evenodd" d="M1041.52 -51.0797C1051.35 -40.085 1062.89 -32.0956 1073.24 -22.0448C1075.84 -19.5291 1084.04 -14.0254 1083.73 -9.8677C1083.55 -7.43674 1080.84 -4.63518 1079.64 -3.05774C1077.57 -0.355513 1075.62 2.38826 1073.7 5.27244C1064.88 18.4805 1056.53 31.8672 1047.08 44.3046C1045.65 46.1751 1041.17 55.3376 1040.15 50.4644C1039.69 48.2549 1040.3 45.8842 1038.9 43.728C1038.18 42.6174 1035.21 41.7494 1036.2 39.6198C1036.77 40.032 1037.33 40.4453 1037.9 40.8566C1037.54 39.0403 1037.68 37.103 1037.09 35.3611C1036.72 34.2789 1035.93 33.7047 1035.7 32.5049C1035.4 30.847 1036.17 29.0328 1036.15 27.3532C1036.13 25.6785 1035.58 24.0425 1035.28 22.435C1033.53 12.906 1033.23 3.44571 1032.59 -6.26922C1031.97 -15.8821 1030.69 -25.261 1030.51 -34.9354C1030.32 -45.1539 1029.97 -55.3685 1029.31 -65.5524C1031.44 -64.929 1032.93 -61.5964 1034.35 -59.654C1036.6 -56.6011 1039.07 -53.8205 1041.52 -51.0797ZM1028.04 46.3299C1027.57 45.7552 1027.22 45.0708 1026.98 44.2778C1032.25 41.3779 1028.87 46.8827 1028.04 46.3299ZM1025.34 38.7593C1023.08 39.3649 1021.48 39.3739 1019.83 37.9709C1019.68 37.8383 1019.91 36.9556 1019.63 36.7416C1019.38 36.5557 1018.98 36.7155 1018.77 36.5431C1018.06 35.9573 1016.69 36.9492 1016.67 34.9775C1019.56 34.0884 1022.46 32.2052 1025.47 32.1382C1029.65 32.0459 1029.15 37.7389 1025.34 38.7593ZM1016.24 26.5008C1013.16 27.1561 1010.55 29.1415 1007.37 28.2388C1004.38 27.3928 1001.87 25.0174 999.625 22.3442C1005.7 20.6579 1011.97 20.8675 1018.04 19.2551C1020.01 18.7303 1022.66 17.0917 1024.71 18.0615C1026.98 19.1395 1026.97 22.0898 1027.52 24.8305C1023.76 25.3638 1019.98 25.7054 1016.24 26.5008ZM997.937 13.2839C994.979 13.9335 991.897 15.6903 989.66 11.9072C989.298 11.2967 988.924 11.8331 989.066 10.0772C989.216 8.22566 990.528 7.15375 991.636 6.60665C994.24 5.32088 997.72 6.66548 1000.41 6.7056C1004.7 6.77104 1009.11 6.00342 1013.39 5.49961C1016.35 5.15138 1019.45 4.03279 1022.42 4.60985C1024.72 5.05558 1027.36 7.99122 1023.89 9.59639C1020.73 11.0592 1016.15 10.3315 1012.79 10.7668C1007.82 11.4104 1002.86 12.2015 997.937 13.2839ZM996.103 -5.47799C996.278 -5.19995 996.452 -4.92193 996.626 -4.64389C996.595 -4.65677 997.809 -5.79648 998.114 -5.80253C999.597 -5.82927 1001.07 -5.54491 1002.55 -5.51076C1005.97 -5.43209 1009.44 -5.89192 1012.83 -6.44167C1015.59 -6.88955 1018.42 -7.85202 1021.21 -7.26347C1023.62 -6.75436 1023.83 -6.0577 1023.82 -2.88011C1017.63 -3.49522 1011.27 -4.30497 1005.09 -3.13923C1001.07 -2.38099 996.519 0.616218 994.873 -5.76562C995.283 -5.66973 995.693 -5.57389 996.103 -5.47799ZM1000.7 -18.4796C1002.15 -16.7476 1006.47 -18.9584 1008.33 -19.0378C1010.34 -19.125 1012.24 -19.2348 1014.21 -19.7147C1015.96 -20.141 1021.8 -22.5575 1022.96 -19.576C1024.74 -15.0079 1016.52 -15.0187 1015.22 -14.9312C1009.73 -14.5641 1004.05 -14.32 998.662 -12.9196C999.341 -14.7726 1000.02 -16.6256 1000.7 -18.4796ZM1008.96 -32.5733C1009.25 -30.515 1021.94 -36.733 1021.87 -31.304C1021.81 -27.1386 1009.37 -26.2973 1007.18 -26.8817C1007.8 -28.7403 1009.27 -30.3136 1008.96 -32.5733ZM1013.78 -44.8526C1014.26 -48.8986 1014.66 -48.8349 1017.1 -48.9783C1018.96 -49.0878 1021.57 -50.296 1020.85 -45.9048C1020.23 -42.1448 1013.29 -40.7696 1013.78 -44.8526ZM1018.93 -58.4266C1019.63 -60.555 1020.78 -57.4823 1020.74 -56.3679C1020.66 -53.4023 1019.03 -54.2073 1017.44 -54.3661C1017.95 -55.7036 1018.45 -57.059 1018.93 -58.4266ZM1040.04 -72.8265C1039.75 -73.3893 1037.93 -73.7737 1037.42 -74.0828C1036.18 -74.8442 1036.43 -76.1775 1034.72 -75.0075C1034.65 -75.1272 1034.86 -76.1138 1034.77 -76.1687C1034.73 -76.1966 1033.61 -76.8959 1033.25 -77.2559C1032.4 -78.1243 1031.63 -78.9672 1030.85 -80.0271C1030.03 -81.1527 1029.23 -82.7473 1028.27 -83.674C1027.87 -84.0645 1027.55 -84.5931 1027.04 -84.7505C1025.74 -85.1581 1026.05 -83.8737 1024.88 -83.7412C1024.15 -83.6594 1023.7 -84.8364 1022.74 -84.4437C1021.91 -84.105 1021.36 -82.6239 1020.95 -81.7505C1019.46 -78.5717 1018.26 -75.1107 1016.8 -71.8939C1009.34 -55.4446 1001.01 -39.7329 993.744 -23.1037C990.242 -15.0927 986.605 -7.03712 983.978 1.58525C982.084 7.80402 978.083 16.766 980.743 23.4326C982.677 28.2796 986.945 30.7139 990.316 33.2981C995.387 37.1868 999.991 42.0681 1005.13 45.8598C1011.25 50.3814 1017.18 55.0638 1023.12 60.0236C1025.65 62.1388 1027.88 65.0446 1030.41 67.0611C1031.96 68.2942 1034.54 66.7087 1034.92 69.2218C1037.12 66.1279 1040.25 68.6476 1042.71 66.5598C1044.15 65.3317 1045.3 62.744 1046.53 61.1772C1048.38 58.8286 1050.37 56.6766 1052.25 54.3755C1059.72 45.2351 1066.69 35.6339 1073.57 25.7033C1080.15 16.2201 1087.71 7.39465 1093.4 -3.1357C1095.66 -7.31583 1096.28 -11.8739 1095.21 -16.8467C1094.43 -20.4743 1092.37 -26.039 1088.89 -24.0345C1090.32 -26.7617 1085.58 -30.2966 1084.12 -31.0023C1084.1 -31.0123 1083.68 -28.8494 1083.27 -28.9455C1083.42 -28.9112 1082.29 -33.9262 1081.71 -34.6124C1079.99 -36.6535 1077.9 -39.044 1076 -40.7728C1074.25 -42.358 1072.37 -43.2447 1070.69 -44.9916C1068.66 -47.1084 1066.82 -49.562 1064.78 -51.6669C1062.81 -53.6989 1060.61 -56.0872 1058.39 -57.5703C1056.47 -58.8569 1054.7 -59.2474 1053.01 -61.2099C1050.92 -63.6383 1049.07 -65.3281 1046.61 -67.1032C1044.47 -68.6386 1041.48 -70.0921 1040.04 -72.8265Z" fill="#C1CBCC" fill-opacity="0.26"/>
<path fill-rule="evenodd" clip-rule="evenodd" d="M839.001 275.151C839.235 274.625 839.469 274.099 839.703 273.573C839.992 274.49 840.074 274.946 839.001 275.151ZM839.312 277.582C838.805 277.669 839.005 276.146 839.005 275.881C839.881 276.355 839.156 276.925 839.312 277.582ZM838.521 273.189C838.954 272.944 839.386 272.7 839.819 272.456C839.217 273.524 839.453 272.856 839.702 273.57C839.247 273.694 838.805 273.549 838.521 273.189ZM835.957 281.534C834.335 287.162 829.184 291.601 823.744 293.9C820.617 295.221 817.543 295.552 814.167 295.404C812.865 295.348 811.333 294.943 810.08 295.018C809.115 295.076 809.158 295.116 808.359 295.898C808.006 295.275 808.262 294.838 807.553 294.475C806.668 294.023 806.3 294.55 805.861 295.176C805.287 294.606 805.052 294.309 804.307 293.971C804.331 293.982 803.595 293.955 803.625 293.964C803.492 293.925 802.691 293.432 802.441 293.343C801.412 292.974 800.223 292.822 799.274 292.292C798.444 291.83 797.76 290.532 796.81 291.53C796.81 289.863 794.463 289.172 793.363 288.299C791.644 286.935 790.277 284.916 789.42 282.962C788.507 280.879 788.202 278.882 787.774 276.735C787.475 275.235 785.519 273.067 786.694 271.553C786.974 272.188 786.842 272.838 787.307 273.413C787.725 272.642 787.956 271.779 788.145 270.935C788.238 270.522 788.776 269.308 788.715 268.948C788.59 268.211 787.636 268.171 788.165 267.267C789.262 268.409 790.148 266.404 789.319 265.605C788.91 266.046 788.759 266.548 788.571 267.094C787.492 265.012 790.477 265.683 789.824 263.802C790.914 263.602 791.54 263.339 791.954 262.309C792.415 261.164 792.076 260.914 793.122 260.157C793.482 259.897 794.5 259.522 794.686 259.094C795.046 258.267 794.129 258.022 794.932 257.246C795.203 257.701 796.26 258.602 796.839 257.745C796.955 257.574 796.468 257.453 796.822 257.059C797.346 256.476 797.933 255.905 798.82 256.027C798.118 254.348 802.604 254.216 803.753 253.819C804.904 253.423 805.881 253.162 807.102 253.07C808.322 252.978 808.383 252.636 809.415 251.934C809.503 252.939 809.755 252.718 810.502 252.895C810.682 252.601 810.866 252.567 811.054 252.796C811.242 252.966 811.471 253.047 811.741 253.037C812.151 253.057 812.617 253.006 813.046 253.014C814.055 253.033 815.096 252.953 816.085 252.973C816.341 252.932 816.579 252.848 816.802 252.718C816.896 252.886 816.989 253.055 817.082 253.223C817.607 253.286 817.647 253.915 818.292 253.227C818.483 254.101 819.031 253.646 819.61 253.883C820.138 254.1 820.222 254.446 820.71 254.687C821.03 254.936 821.374 254.968 821.741 254.786C822.09 255.034 822.445 255.275 822.805 255.508C823.468 255.866 824.25 256.085 824.949 256.368C825.413 256.552 825.875 256.743 826.334 256.94C826.347 257.469 826.595 257.656 827.078 257.501C827.513 257.849 827.636 257.835 828.058 258.429C829.016 259.774 829.865 260.819 831.074 262.021C836.33 267.248 837.945 274.638 835.957 281.534ZM837.57 259.309C835.197 256.269 831.839 252.789 828.821 250.87C827.291 249.896 825.144 248.149 823.273 247.635C822.829 247.513 822.37 247.505 821.934 247.377C821.598 247.278 821.414 246.947 821.03 246.888C820.762 246.846 820.732 247.421 820.446 247.368C819.85 247.257 819.472 246.691 819.05 246.337C818.145 247.828 817.654 245.32 816.325 247.006C814.743 244.634 811.028 245.153 808.502 245.272C807.753 245.308 807.401 245.563 806.737 245.751C806.119 245.927 806.058 245.882 805.383 245.877C803.703 245.865 802.211 246.067 800.657 246.773C798.047 247.959 795.651 249.806 793.172 251.236C790.401 252.833 787.904 254.866 785.784 257.202C778.121 265.649 776.072 277.978 782.182 287.771C791.887 303.324 816.922 304.986 831.107 294.433C842.067 286.279 846.238 270.408 837.57 259.309Z" fill="#70969B" fill-opacity="0.16"/>
</g>
<path fill-rule="evenodd" clip-rule="evenodd" d="M331.797 177.533C330.183 177.065 328.186 176.15 326.391 176.462C324.484 176.793 323.716 178.308 322.33 179.219C318.56 181.695 316.364 178.004 314.293 175.981C312.337 174.071 309.95 173.608 307.19 174.781C306.09 175.249 301.457 177.393 302.265 178.766C302.846 179.755 305.135 178.867 305.916 178.652C307.611 178.184 309.185 177.774 310.918 178.456C314.17 179.735 315.013 183.243 318.947 183.79C323.015 184.355 323.148 181.285 326.052 180.129C327.998 179.355 329.353 180.726 331.231 180.452C333.02 180.192 333.848 178.127 331.797 177.533Z" fill="#70969B"/>
<path fill-rule="evenodd" clip-rule="evenodd" d="M298.955 189.908C300.394 190.156 301.333 187.942 302.234 187.381C303.728 186.45 306.318 186.263 307.839 187.199C310.809 189.027 309.786 192.974 314.015 194.003C317.796 194.923 319.577 190.974 322.759 189.99C324.609 189.419 326.64 189.044 325.918 186.993C325.419 185.574 323.95 185.21 322.353 185.755C319.609 186.69 318.677 190.503 315.423 190.571C312.056 190.641 311.691 186.792 310.246 185.115C308.042 182.559 303.512 181.942 300.938 184.385C300.161 185.123 296.215 189.437 298.955 189.908Z" fill="#70969B"/>
<g filter="url(#filter0_f)">
<path d="M763.299 220.347L763.525 221.183L764.136 220.569L790.402 194.171L791.012 193.557L790.175 193.335L754.181 183.787L753.344 183.565L753.57 184.401L763.299 220.347Z" stroke="#696769" stroke-opacity="0.07"/>
</g>
<g filter="url(#filter1_f)">
<path d="M151.383 83.6234L152.042 86.2633L153.922 84.297L188.348 48.3023L190.104 46.4669L187.649 45.8157L141.164 33.4851L138.709 32.8339L139.324 35.2981L151.383 83.6234Z" stroke="#696769" stroke-opacity="0.2" stroke-width="3"/>
</g>
<rect x="79.6478" y="211.372" width="51" height="51" transform="rotate(-21.3687 79.6478 211.372)" stroke="#696769" stroke-opacity="0.07"/>
<defs>
<filter id="filter0_f" x="742.597" y="181.86" width="50.3804" height="46.5077" filterUnits="userSpaceOnUse" color-interpolation-filters="sRGB">
<feFlood flood-opacity="0" result="BackgroundImageFix"/>
<feBlend mode="normal" in="SourceGraphic" in2="BackgroundImageFix" result="shape"/>
<feGaussianBlur stdDeviation="0.5" result="effect1_foregroundBlur"/>
</filter>
<filter id="filter1_f" x="122.093" y="29.7329" width="71.8504" height="68.0012" filterUnits="userSpaceOnUse" color-interpolation-filters="sRGB">
<feFlood flood-opacity="0" result="BackgroundImageFix"/>
<feBlend mode="normal" in="SourceGraphic" in2="BackgroundImageFix" result="shape"/>
<feGaussianBlur stdDeviation="0.5" result="effect1_foregroundBlur"/>
</filter>
</defs>
</svg>
