<svg width="50" height="50" viewBox="0 0 50 50" fill="none" xmlns="http://www.w3.org/2000/svg">
<rect width="50" height="50" rx="6" fill="#C2FDC8"/>
<path d="M29 32V30C29 28.9391 28.5786 27.9217 27.8284 27.1716C27.0783 26.4214 26.0609 26 25 26H18C16.9391 26 15.9217 26.4214 15.1716 27.1716C14.4214 27.9217 14 28.9391 14 30V32" stroke="#3EE94F" stroke-width="2" stroke-linecap="round" stroke-linejoin="round"/>
<path d="M21.5 22C23.7091 22 25.5 20.2091 25.5 18C25.5 15.7909 23.7091 14 21.5 14C19.2909 14 17.5 15.7909 17.5 18C17.5 20.2091 19.2909 22 21.5 22Z" stroke="#3EE94F" stroke-width="2" stroke-linecap="round" stroke-linejoin="round"/>
<path d="M30 22L32 24L36 20" stroke="#3EE94F" stroke-width="2" stroke-linecap="round" stroke-linejoin="round"/>
</svg>
