<svg width="50" height="50" viewBox="0 0 50 50" fill="none" xmlns="http://www.w3.org/2000/svg">
<rect width="50" height="50" rx="6" fill="#E8F4FF"/>
<path fill-rule="evenodd" clip-rule="evenodd" d="M20.478 22.6819C20.8815 22.2652 20.8815 21.5901 20.478 21.1733L20.4644 21.1591C20.0609 20.7423 19.4071 20.7423 19.0035 21.1591L15.3027 24.9801C14.8991 25.3969 14.8991 26.0733 15.3027 26.4901L19.0035 30.3108C19.4071 30.7276 20.0609 30.7276 20.4644 30.3108L20.478 30.2969C20.8815 29.8801 20.8815 29.205 20.478 28.7883L18.2527 26.4901C17.8491 26.0733 17.8491 25.3969 18.2527 24.9801L20.478 22.6819ZM34.6973 24.9801L30.9965 21.1591C30.594 20.7423 29.9391 20.7423 29.5356 21.1591L29.522 21.1733C29.1185 21.5901 29.1185 22.2652 29.522 22.6819L31.7484 24.9801C32.1519 25.3969 32.1519 26.0733 31.7484 26.4901L29.522 28.7883C29.1185 29.205 29.1185 29.8801 29.522 30.2969L29.5356 30.3108C29.9391 30.7276 30.594 30.7276 30.9965 30.3108L34.6973 26.4901C35.1009 26.0733 35.1009 25.3969 34.6973 24.9801ZM28.4835 20.5165L23.1547 32.1802C22.9821 32.5469 22.6792 33 22.2885 33H22.2678C21.508 33 21.0129 31.9444 21.3488 31.2326L26.6466 19.6794C26.8192 19.3138 27.4591 19.0271 27.4591 19.0271V19C28.4928 19 28.8185 19.8048 28.4835 20.5165Z" fill="#4FA6F7"/>
</svg>
