<svg width="14" height="14" viewBox="0 0 14 14" fill="none" xmlns="http://www.w3.org/2000/svg">
<path d="M5.83334 7.58335C6.08386 7.91826 6.40347 8.19538 6.7705 8.3959C7.13753 8.59643 7.54339 8.71567 7.96056 8.74555C8.37772 8.77542 8.79644 8.71523 9.1883 8.56906C9.58015 8.42288 9.93599 8.19414 10.2317 7.89835L11.9817 6.14835C12.513 5.59826 12.807 4.86151 12.8003 4.09677C12.7937 3.33203 12.4869 2.60049 11.9461 2.05972C11.4054 1.51894 10.6738 1.2122 9.9091 1.20555C9.14436 1.19891 8.4076 1.49289 7.85751 2.02419L6.85418 3.02169" stroke="#35A2CE" stroke-width="2" stroke-linecap="round" stroke-linejoin="round"/>
<path d="M8.16666 6.41667C7.91615 6.08176 7.59654 5.80465 7.22951 5.60412C6.86248 5.4036 6.45662 5.28435 6.03945 5.25448C5.62228 5.2246 5.20357 5.28479 4.81171 5.43096C4.41985 5.57714 4.06401 5.80588 3.76833 6.10167L2.01833 7.85167C1.48703 8.40176 1.19305 9.13852 1.1997 9.90326C1.20634 10.668 1.51308 11.3995 2.05386 11.9403C2.59463 12.4811 3.32617 12.7878 4.09091 12.7945C4.85565 12.8011 5.5924 12.5071 6.14249 11.9758L7.13999 10.9783" stroke="#35A2CE" stroke-width="2" stroke-linecap="round" stroke-linejoin="round"/>
</svg>
