<svg width="83" height="28" viewBox="0 0 83 28" fill="none" xmlns="http://www.w3.org/2000/svg">
<path d="M1.81152 22.0312V25H0.981445V17.8613H2.93945C3.8151 17.8613 4.46126 18.029 4.87793 18.3643C5.29785 18.6995 5.50781 19.2041 5.50781 19.8779C5.50781 20.8219 5.0293 21.46 4.07227 21.792L6.01074 25H5.0293L3.30078 22.0312H1.81152ZM1.81152 21.3184H2.94922C3.53516 21.3184 3.96484 21.2028 4.23828 20.9717C4.51172 20.7373 4.64844 20.3874 4.64844 19.9219C4.64844 19.4499 4.50846 19.1097 4.22852 18.9014C3.95182 18.693 3.50586 18.5889 2.89062 18.5889H1.81152V21.3184ZM8.95176 25.0977C8.16074 25.0977 7.53574 24.8568 7.07676 24.375C6.62103 23.8932 6.39316 23.2243 6.39316 22.3682C6.39316 21.5055 6.60475 20.8203 7.02793 20.3125C7.45436 19.8047 8.02565 19.5508 8.7418 19.5508C9.41237 19.5508 9.94297 19.7721 10.3336 20.2148C10.7242 20.6543 10.9195 21.2354 10.9195 21.958V22.4707H7.23301C7.24928 23.099 7.40716 23.5758 7.70664 23.9014C8.00938 24.2269 8.43418 24.3896 8.98105 24.3896C9.55723 24.3896 10.1269 24.2692 10.69 24.0283V24.751C10.4036 24.8747 10.1318 24.9626 9.87461 25.0146C9.6207 25.07 9.31309 25.0977 8.95176 25.0977ZM8.73203 20.2295C8.30234 20.2295 7.95892 20.3695 7.70176 20.6494C7.44785 20.9294 7.29811 21.3167 7.25254 21.8115H10.0504C10.0504 21.3005 9.93646 20.9098 9.70859 20.6396C9.48073 20.3662 9.15521 20.2295 8.73203 20.2295ZM15.2473 25L15.0861 24.2383H15.0471C14.7801 24.5736 14.5132 24.8014 14.2463 24.9219C13.9826 25.0391 13.6522 25.0977 13.2551 25.0977C12.7245 25.0977 12.3078 24.9609 12.0051 24.6875C11.7056 24.4141 11.5559 24.0251 11.5559 23.5205C11.5559 22.4398 12.4201 21.8734 14.1486 21.8213L15.0568 21.792V21.46C15.0568 21.04 14.9657 20.7308 14.7834 20.5322C14.6044 20.3304 14.3163 20.2295 13.9191 20.2295C13.4732 20.2295 12.9686 20.3662 12.4055 20.6396L12.1564 20.0195C12.4201 19.8763 12.7082 19.764 13.0207 19.6826C13.3365 19.6012 13.6522 19.5605 13.968 19.5605C14.606 19.5605 15.078 19.7021 15.384 19.9854C15.6932 20.2686 15.8479 20.7227 15.8479 21.3477V25H15.2473ZM13.4162 24.4287C13.9208 24.4287 14.3163 24.2904 14.6027 24.0137C14.8924 23.737 15.0373 23.3496 15.0373 22.8516V22.3682L14.2268 22.4023C13.5822 22.4251 13.1167 22.526 12.8303 22.7051C12.5471 22.8809 12.4055 23.1559 12.4055 23.5303C12.4055 23.8232 12.4934 24.0462 12.6691 24.1992C12.8482 24.3522 13.0972 24.4287 13.4162 24.4287ZM20.8152 24.2822H20.7713C20.3969 24.8258 19.837 25.0977 19.0916 25.0977C18.3917 25.0977 17.8465 24.8584 17.4559 24.3799C17.0685 23.9014 16.8748 23.221 16.8748 22.3389C16.8748 21.4567 17.0701 20.7715 17.4607 20.2832C17.8514 19.7949 18.395 19.5508 19.0916 19.5508C19.8175 19.5508 20.3742 19.8145 20.7615 20.3418H20.825L20.7908 19.9561L20.7713 19.5801V17.4023H21.5818V25H20.9227L20.8152 24.2822ZM19.1941 24.4189C19.7475 24.4189 20.1479 24.2692 20.3953 23.9697C20.646 23.667 20.7713 23.1803 20.7713 22.5098V22.3389C20.7713 21.5804 20.6443 21.04 20.3904 20.7178C20.1398 20.3923 19.7378 20.2295 19.1844 20.2295C18.7091 20.2295 18.3445 20.415 18.0906 20.7861C17.84 21.154 17.7146 21.6748 17.7146 22.3486C17.7146 23.0322 17.84 23.5482 18.0906 23.8965C18.3413 24.2448 18.7091 24.4189 19.1941 24.4189ZM22.1059 19.6484H22.975L24.1469 22.7002C24.404 23.3968 24.5635 23.8997 24.6254 24.209H24.6645C24.7068 24.043 24.7947 23.7598 24.9281 23.3594C25.0648 22.9557 25.5076 21.7188 26.2563 19.6484H27.1254L24.8256 25.7422C24.5977 26.3444 24.3308 26.7708 24.0248 27.0215C23.7221 27.2754 23.3493 27.4023 22.9066 27.4023C22.6592 27.4023 22.4151 27.3747 22.1742 27.3193V26.6699C22.3533 26.709 22.5535 26.7285 22.7748 26.7285C23.3314 26.7285 23.7286 26.416 23.9662 25.791L24.2641 25.0293L22.1059 19.6484ZM31.6207 24.4287C31.7639 24.4287 31.9023 24.4189 32.0357 24.3994C32.1692 24.3766 32.275 24.3538 32.3531 24.3311V24.9512C32.2652 24.9935 32.135 25.0277 31.9625 25.0537C31.7932 25.083 31.6402 25.0977 31.5035 25.0977C30.4684 25.0977 29.9508 24.5524 29.9508 23.4619V20.2783H29.1842V19.8877L29.9508 19.5508L30.2926 18.4082H30.7613V19.6484H32.3141V20.2783H30.7613V23.4277C30.7613 23.75 30.8378 23.9974 30.9908 24.1699C31.1438 24.3424 31.3538 24.4287 31.6207 24.4287ZM37.6965 22.3193C37.6965 23.1917 37.4768 23.8737 37.0373 24.3652C36.5979 24.8535 35.9908 25.0977 35.216 25.0977C34.7375 25.0977 34.3127 24.9854 33.9416 24.7607C33.5705 24.5361 33.284 24.2139 33.0822 23.7939C32.8804 23.374 32.7795 22.8825 32.7795 22.3193C32.7795 21.4469 32.9976 20.7682 33.4338 20.2832C33.87 19.7949 34.4755 19.5508 35.2502 19.5508C35.9989 19.5508 36.593 19.7998 37.0324 20.2979C37.4751 20.7959 37.6965 21.4697 37.6965 22.3193ZM33.6193 22.3193C33.6193 23.0029 33.7561 23.5238 34.0295 23.8818C34.3029 24.2399 34.7049 24.4189 35.2355 24.4189C35.7661 24.4189 36.1682 24.2415 36.4416 23.8867C36.7183 23.5286 36.8566 23.0062 36.8566 22.3193C36.8566 21.639 36.7183 21.123 36.4416 20.7715C36.1682 20.4167 35.7629 20.2393 35.2258 20.2393C34.6952 20.2393 34.2948 20.4134 34.0246 20.7617C33.7544 21.11 33.6193 21.6292 33.6193 22.3193ZM44.3109 25L44.1498 24.2383H44.1107C43.8438 24.5736 43.5769 24.8014 43.31 24.9219C43.0463 25.0391 42.7159 25.0977 42.3187 25.0977C41.7881 25.0977 41.3715 24.9609 41.0687 24.6875C40.7693 24.4141 40.6195 24.0251 40.6195 23.5205C40.6195 22.4398 41.4838 21.8734 43.2123 21.8213L44.1205 21.792V21.46C44.1205 21.04 44.0294 20.7308 43.8471 20.5322C43.668 20.3304 43.3799 20.2295 42.9828 20.2295C42.5368 20.2295 42.0323 20.3662 41.4691 20.6396L41.2201 20.0195C41.4838 19.8763 41.7719 19.764 42.0844 19.6826C42.4001 19.6012 42.7159 19.5605 43.0316 19.5605C43.6697 19.5605 44.1417 19.7021 44.4477 19.9854C44.7569 20.2686 44.9115 20.7227 44.9115 21.3477V25H44.3109ZM42.4799 24.4287C42.9844 24.4287 43.3799 24.2904 43.6664 24.0137C43.9561 23.737 44.101 23.3496 44.101 22.8516V22.3682L43.2904 22.4023C42.6459 22.4251 42.1804 22.526 41.8939 22.7051C41.6107 22.8809 41.4691 23.1559 41.4691 23.5303C41.4691 23.8232 41.557 24.0462 41.7328 24.1992C41.9118 24.3522 42.1609 24.4287 42.4799 24.4287ZM49.6885 23.54C49.6885 24.0381 49.5029 24.4222 49.1318 24.6924C48.7607 24.9626 48.2399 25.0977 47.5693 25.0977C46.8597 25.0977 46.3063 24.9854 45.9092 24.7607V24.0088C46.1663 24.139 46.4414 24.2415 46.7344 24.3164C47.0306 24.3913 47.3154 24.4287 47.5889 24.4287C48.012 24.4287 48.3376 24.362 48.5654 24.2285C48.7933 24.0918 48.9072 23.8851 48.9072 23.6084C48.9072 23.4001 48.8161 23.2227 48.6338 23.0762C48.4548 22.9264 48.1032 22.7507 47.5791 22.5488C47.0811 22.3633 46.7262 22.2021 46.5146 22.0654C46.3063 21.9255 46.1501 21.7676 46.0459 21.5918C45.945 21.416 45.8945 21.2061 45.8945 20.9619C45.8945 20.5257 46.0719 20.1823 46.4268 19.9316C46.7816 19.6777 47.2682 19.5508 47.8867 19.5508C48.4629 19.5508 49.026 19.668 49.5762 19.9023L49.2881 20.5615C48.751 20.3402 48.2643 20.2295 47.8281 20.2295C47.444 20.2295 47.1543 20.2897 46.959 20.4102C46.7637 20.5306 46.666 20.6966 46.666 20.9082C46.666 21.0514 46.7018 21.1735 46.7734 21.2744C46.8483 21.3753 46.9671 21.4714 47.1299 21.5625C47.2926 21.6536 47.6051 21.7855 48.0674 21.958C48.7021 22.1891 49.1302 22.4219 49.3516 22.6562C49.5762 22.8906 49.6885 23.1852 49.6885 23.54ZM54.1139 23.54C54.1139 24.0381 53.9283 24.4222 53.5572 24.6924C53.1861 24.9626 52.6653 25.0977 51.9947 25.0977C51.2851 25.0977 50.7317 24.9854 50.3346 24.7607V24.0088C50.5917 24.139 50.8668 24.2415 51.1598 24.3164C51.456 24.3913 51.7408 24.4287 52.0143 24.4287C52.4374 24.4287 52.763 24.362 52.9908 24.2285C53.2187 24.0918 53.3326 23.8851 53.3326 23.6084C53.3326 23.4001 53.2415 23.2227 53.0592 23.0762C52.8801 22.9264 52.5286 22.7507 52.0045 22.5488C51.5064 22.3633 51.1516 22.2021 50.94 22.0654C50.7317 21.9255 50.5755 21.7676 50.4713 21.5918C50.3704 21.416 50.3199 21.2061 50.3199 20.9619C50.3199 20.5257 50.4973 20.1823 50.8521 19.9316C51.207 19.6777 51.6936 19.5508 52.3121 19.5508C52.8883 19.5508 53.4514 19.668 54.0016 19.9023L53.7135 20.5615C53.1764 20.3402 52.6897 20.2295 52.2535 20.2295C51.8694 20.2295 51.5797 20.2897 51.3844 20.4102C51.1891 20.5306 51.0914 20.6966 51.0914 20.9082C51.0914 21.0514 51.1272 21.1735 51.1988 21.2744C51.2737 21.3753 51.3925 21.4714 51.5553 21.5625C51.718 21.6536 52.0305 21.7855 52.4928 21.958C53.1275 22.1891 53.5556 22.4219 53.777 22.6562C54.0016 22.8906 54.1139 23.1852 54.1139 23.54ZM55.8977 25H55.0871V19.6484H55.8977V25ZM55.0187 18.1982C55.0187 18.0127 55.0643 17.8776 55.1555 17.793C55.2466 17.7051 55.3605 17.6611 55.4973 17.6611C55.6275 17.6611 55.7398 17.7051 55.8342 17.793C55.9286 17.8809 55.9758 18.016 55.9758 18.1982C55.9758 18.3805 55.9286 18.5173 55.8342 18.6084C55.7398 18.6963 55.6275 18.7402 55.4973 18.7402C55.3605 18.7402 55.2466 18.6963 55.1555 18.6084C55.0643 18.5173 55.0187 18.3805 55.0187 18.1982ZM60.7186 23.54C60.7186 24.0381 60.533 24.4222 60.1619 24.6924C59.7908 24.9626 59.27 25.0977 58.5994 25.0977C57.8898 25.0977 57.3364 24.9854 56.9393 24.7607V24.0088C57.1964 24.139 57.4715 24.2415 57.7645 24.3164C58.0607 24.3913 58.3455 24.4287 58.6189 24.4287C59.0421 24.4287 59.3676 24.362 59.5955 24.2285C59.8234 24.0918 59.9373 23.8851 59.9373 23.6084C59.9373 23.4001 59.8462 23.2227 59.6639 23.0762C59.4848 22.9264 59.1333 22.7507 58.6092 22.5488C58.1111 22.3633 57.7563 22.2021 57.5447 22.0654C57.3364 21.9255 57.1801 21.7676 57.076 21.5918C56.9751 21.416 56.9246 21.2061 56.9246 20.9619C56.9246 20.5257 57.102 20.1823 57.4568 19.9316C57.8117 19.6777 58.2983 19.5508 58.9168 19.5508C59.493 19.5508 60.0561 19.668 60.6063 19.9023L60.3182 20.5615C59.7811 20.3402 59.2944 20.2295 58.8582 20.2295C58.4741 20.2295 58.1844 20.2897 57.9891 20.4102C57.7938 20.5306 57.6961 20.6966 57.6961 20.9082C57.6961 21.0514 57.7319 21.1735 57.8035 21.2744C57.8784 21.3753 57.9972 21.4714 58.16 21.5625C58.3227 21.6536 58.6352 21.7855 59.0975 21.958C59.7322 22.1891 60.1603 22.4219 60.3816 22.6562C60.6063 22.8906 60.7186 23.1852 60.7186 23.54ZM63.4203 24.4287C63.5635 24.4287 63.7019 24.4189 63.8354 24.3994C63.9688 24.3766 64.0746 24.3538 64.1527 24.3311V24.9512C64.0648 24.9935 63.9346 25.0277 63.7621 25.0537C63.5928 25.083 63.4398 25.0977 63.3031 25.0977C62.268 25.0977 61.7504 24.5524 61.7504 23.4619V20.2783H60.9838V19.8877L61.7504 19.5508L62.0922 18.4082H62.5609V19.6484H64.1137V20.2783H62.5609V23.4277C62.5609 23.75 62.6374 23.9974 62.7904 24.1699C62.9434 24.3424 63.1534 24.4287 63.4203 24.4287ZM66.275 19.6484H67.1441L68.316 22.7002C68.5732 23.3968 68.7327 23.8997 68.7945 24.209H68.8336C68.8759 24.043 68.9638 23.7598 69.0973 23.3594C69.234 22.9557 69.6767 21.7188 70.4254 19.6484H71.2945L68.9947 25.7422C68.7669 26.3444 68.4999 26.7708 68.1939 27.0215C67.8912 27.2754 67.5185 27.4023 67.0758 27.4023C66.8284 27.4023 66.5842 27.3747 66.3434 27.3193V26.6699C66.5224 26.709 66.7226 26.7285 66.9439 26.7285C67.5006 26.7285 67.8977 26.416 68.1354 25.791L68.4332 25.0293L66.275 19.6484ZM76.4328 22.3193C76.4328 23.1917 76.2131 23.8737 75.7736 24.3652C75.3342 24.8535 74.7271 25.0977 73.9523 25.0977C73.4738 25.0977 73.049 24.9854 72.6779 24.7607C72.3068 24.5361 72.0204 24.2139 71.8186 23.7939C71.6167 23.374 71.5158 22.8825 71.5158 22.3193C71.5158 21.4469 71.7339 20.7682 72.1701 20.2832C72.6063 19.7949 73.2118 19.5508 73.9865 19.5508C74.7352 19.5508 75.3293 19.7998 75.7688 20.2979C76.2115 20.7959 76.4328 21.4697 76.4328 22.3193ZM72.3557 22.3193C72.3557 23.0029 72.4924 23.5238 72.7658 23.8818C73.0393 24.2399 73.4413 24.4189 73.9719 24.4189C74.5025 24.4189 74.9045 24.2415 75.1779 23.8867C75.4546 23.5286 75.593 23.0062 75.593 22.3193C75.593 21.639 75.4546 21.123 75.1779 20.7715C74.9045 20.4167 74.4992 20.2393 73.9621 20.2393C73.4315 20.2393 73.0311 20.4134 72.7609 20.7617C72.4908 21.11 72.3557 21.6292 72.3557 22.3193ZM78.2703 19.6484V23.1201C78.2703 23.5563 78.3696 23.8818 78.5682 24.0967C78.7667 24.3115 79.0776 24.4189 79.5008 24.4189C80.0607 24.4189 80.4692 24.266 80.7264 23.96C80.9868 23.654 81.117 23.1543 81.117 22.4609V19.6484H81.9275V25H81.2586L81.1414 24.2822H81.0975C80.9314 24.5459 80.7003 24.7477 80.4041 24.8877C80.1111 25.0277 79.7758 25.0977 79.3982 25.0977C78.7472 25.0977 78.2589 24.943 77.9334 24.6338C77.6111 24.3245 77.45 23.8298 77.45 23.1494V19.6484H78.2703Z" fill="#AEAEAE"/>
<path d="M27.85 13.802C28.45 13.802 28.978 13.64 29.434 13.316C29.902 12.992 30.136 12.506 30.136 11.858C30.136 11.198 29.884 10.694 29.38 10.346C28.888 9.998 28.18 9.698 27.256 9.446C26.344 9.182 25.678 8.954 25.258 8.762C24.85 8.57 24.46 8.318 24.088 8.006C23.344 7.382 22.972 6.416 22.972 5.108C22.972 4.04 23.35 3.122 24.106 2.354C24.874 1.586 25.918 1.202 27.238 1.202C27.874 1.202 28.534 1.298 29.218 1.49C29.914 1.67 30.346 1.76 30.514 1.76C30.682 1.76 30.832 1.64 30.964 1.4H31.162L31.288 5.036H31C30.424 3.992 29.818 3.158 29.182 2.534C28.558 1.898 27.874 1.58 27.13 1.58C26.398 1.58 25.828 1.754 25.42 2.102C25.012 2.438 24.808 2.894 24.808 3.47C24.808 4.034 25.048 4.472 25.528 4.784C26.02 5.084 26.62 5.33 27.328 5.522C28.036 5.714 28.498 5.846 28.714 5.918C28.942 5.99 29.218 6.092 29.542 6.224C29.878 6.344 30.148 6.476 30.352 6.62C30.568 6.752 30.79 6.926 31.018 7.142C31.258 7.346 31.444 7.574 31.576 7.826C31.9 8.402 32.062 9.086 32.062 9.878C32.062 11.174 31.654 12.218 30.838 13.01C30.034 13.79 28.972 14.18 27.652 14.18C26.968 14.18 26.182 14.09 25.294 13.91C24.418 13.73 23.932 13.64 23.836 13.64C23.668 13.64 23.506 13.82 23.35 14.18H23.098L22.918 9.896H23.224C23.752 10.94 24.424 11.852 25.24 12.632C26.068 13.412 26.938 13.802 27.85 13.802ZM37.293 9.77H37.815V8.384C37.815 7.244 37.749 6.482 37.617 6.098C37.497 5.702 37.257 5.504 36.897 5.504C36.681 5.504 36.483 5.564 36.303 5.684C36.135 5.792 36.051 5.948 36.051 6.152C36.051 6.344 36.087 6.542 36.159 6.746H36.609C36.705 6.998 36.753 7.304 36.753 7.664C36.753 8.012 36.603 8.318 36.303 8.582C36.003 8.834 35.625 8.96 35.169 8.96C34.137 8.96 33.621 8.462 33.621 7.466C33.621 5.99 34.875 5.252 37.383 5.252C38.811 5.252 39.795 5.498 40.335 5.99C40.887 6.47 41.163 7.358 41.163 8.654V12.308C41.163 12.932 41.337 13.244 41.685 13.244C42.093 13.244 42.333 12.626 42.405 11.39L42.675 11.408C42.627 12.464 42.429 13.19 42.081 13.586C41.733 13.982 41.163 14.18 40.371 14.18C38.931 14.18 38.103 13.736 37.887 12.848C37.731 13.304 37.497 13.64 37.185 13.856C36.873 14.072 36.417 14.18 35.817 14.18C34.041 14.18 33.153 13.454 33.153 12.002C33.153 11.15 33.489 10.568 34.161 10.256C34.845 9.932 35.889 9.77 37.293 9.77ZM36.573 11.984C36.573 12.608 36.603 13.01 36.663 13.19C36.735 13.37 36.861 13.46 37.041 13.46C37.233 13.46 37.407 13.31 37.563 13.01C37.731 12.698 37.815 12.272 37.815 11.732V10.058H37.689C36.945 10.058 36.573 10.604 36.573 11.696V11.984ZM42.8879 5.432H47.2259V7.088C47.4179 6.536 47.7119 6.092 48.1079 5.756C48.5039 5.42 49.1039 5.252 49.9079 5.252C51.7679 5.252 52.6979 6.254 52.6979 8.258V13.676H53.7059V14H48.6119V13.676H49.3499V7.826C49.3499 7.106 49.3019 6.644 49.2059 6.44C49.1099 6.224 48.9359 6.116 48.6839 6.116C48.2999 6.116 47.9579 6.368 47.6579 6.872C47.3699 7.376 47.2259 7.988 47.2259 8.708V13.676H47.9999V14H42.8879V13.676H43.8779V5.756H42.8879V5.432ZM57.5977 10.274C57.5977 11.534 57.6637 12.374 57.7957 12.794C57.9277 13.202 58.1677 13.406 58.5157 13.406C58.8757 13.406 59.1817 13.25 59.4337 12.938C59.6977 12.626 59.8297 12.164 59.8297 11.552V7.628C59.8297 7.112 59.7277 6.674 59.5237 6.314C59.3197 5.954 59.0197 5.774 58.6237 5.774C58.2277 5.774 57.9577 6.038 57.8137 6.566C57.6697 7.094 57.5977 8.018 57.5977 9.338V10.274ZM60.0637 14L59.8657 12.74C59.4577 13.7 58.6297 14.18 57.3817 14.18C56.3497 14.18 55.5457 13.808 54.9697 13.064C54.4057 12.32 54.1237 11.21 54.1237 9.734C54.1237 6.746 55.3117 5.252 57.6877 5.252C58.7437 5.252 59.4397 5.546 59.7757 6.134V0.823999H58.6777V0.499999H63.1777V13.676H64.0597V14H60.0637ZM69.2597 14.18C67.7117 14.18 66.5477 13.784 65.7677 12.992C64.9997 12.188 64.6157 11.078 64.6157 9.662C64.6157 8.234 65.0477 7.142 65.9117 6.386C66.7877 5.63 67.8977 5.252 69.2417 5.252C71.9657 5.252 73.2737 6.62 73.1657 9.356H68.0897V10.058C68.0897 11.234 68.2397 12.122 68.5397 12.722C68.8397 13.322 69.3617 13.622 70.1057 13.622C71.4977 13.622 72.4097 12.878 72.8417 11.39L73.1657 11.444C72.9377 12.308 72.5237 12.98 71.9237 13.46C71.3357 13.94 70.4477 14.18 69.2597 14.18ZM68.1077 8.996H69.9617V8.114C69.9617 7.142 69.9017 6.482 69.7817 6.134C69.6737 5.774 69.4457 5.594 69.0977 5.594C68.7617 5.594 68.5097 5.786 68.3417 6.17C68.1857 6.542 68.1077 7.19 68.1077 8.114V8.996ZM73.1699 5.756V5.432H78.5519V5.756H77.4179L79.5779 11.732L81.5219 5.756H80.3159V5.432H82.7459V5.756H81.9539L79.2899 14H77.2379L73.9079 5.756H73.1699Z" fill="#35A2CE"/>
<path fill-rule="evenodd" clip-rule="evenodd" d="M1.87561 9.12948C2.78811 9.41458 3.38368 6.86815 3.9548 6.22221C4.90227 5.15159 6.54492 4.93575 7.50969 6.01339C9.39374 8.11675 8.74442 12.6578 11.427 13.8415C13.8247 14.8996 14.9541 10.3559 16.9724 9.22469C18.1459 8.56685 19.434 8.13622 18.976 5.77589C18.6598 4.14374 17.7281 3.72447 16.7152 4.35148C14.9744 5.42804 14.3834 9.81383 12.3196 9.89227C10.1844 9.97342 9.95282 5.54435 9.03618 3.61519C7.63865 0.674927 4.76579 -0.0353862 3.13328 2.77612C2.64037 3.62439 0.137818 8.58795 1.87561 9.12948Z" fill="url(#paint0_linear)"/>
<defs>
<linearGradient id="paint0_linear" x1="6.6874" y1="3.70833" x2="20.749" y2="2.31305" gradientUnits="userSpaceOnUse">
<stop stop-color="#92C5DA"/>
<stop offset="1" stop-color="#35A2CE"/>
</linearGradient>
</defs>
</svg>
